<svg width="298" height="60" fill="none" xmlns="http://www.w3.org/2000/svg"><path d="M183.617 8.723l-2.022.19c-1.062.085-1.736.845-2.021 2.282l-7.719 34.548h-8.393l-6.433-28.209h-.184l-6.248 28.209h-8.638l-8.454-36.576-3.492-.19V3.588h15.193v5.135l-2.022.19c-1.266.127-1.899.676-1.899 1.648 0 .17.02.36.061.57l5.33 24.47h.245l6.371-28.653h7.903l6.616 28.779h.123l5.207-26.497-3.308-.253V3.588h13.784v5.135zM195.794 13.858V40.48l3.492.19v5.072h-14.581v-4.818l2.022-.19c1.184-.127 1.777-.803 1.777-2.029V21.084c0-.718-.123-1.204-.368-1.458-.204-.254-.592-.38-1.164-.38l-2.144-.127v-5.261h10.966zm-7.719-5.452c-.858-.887-1.287-2.007-1.287-3.36 0-1.352.429-2.472 1.287-3.36.857-.929 1.981-1.394 3.369-1.394 1.389 0 2.512.465 3.37 1.395.898.887 1.347 2.007 1.347 3.36 0 1.352-.449 2.472-1.347 3.36-.858.844-1.981 1.267-3.37 1.267-1.388 0-2.512-.423-3.369-1.268z" fill="#000"/><path d="M212.328 13.858v33.406c0 3.38-.531 6.128-1.593 8.24-1.347 2.536-4.084 3.804-8.209 3.804-2.94 0-5.554-.74-7.841-2.219l2.205-5.261c1.593.887 3.043 1.331 4.35 1.331 1.348 0 2.307-.422 2.879-1.268.613-.845.919-2.282.919-4.31V21.084c0-.676-.122-1.141-.368-1.395-.204-.253-.592-.401-1.163-.443l-2.145-.127v-5.261h10.966zm-7.719-5.452c-.857-.887-1.286-2.007-1.286-3.36 0-1.352.429-2.472 1.286-3.36.858-.929 1.981-1.394 3.37-1.394 1.388 0 2.511.465 3.369 1.395.899.887 1.348 2.007 1.348 3.36 0 1.352-.449 2.472-1.348 3.36-.858.844-1.981 1.267-3.369 1.267-1.389 0-2.512-.423-3.37-1.268zM241.959 45.743h-24.995v-4.818l15.744-21.426h-7.719c-.857 0-1.409.17-1.654.507-.204.338-.306.888-.306 1.648v2.22l-5.759-.445v-9.571h24.383v4.31l-15.928 21.87h8.699c1.184 0 1.776-.719 1.776-2.156V35.22l5.759.444v10.079zM260.301 12.907c3.063 0 5.493.782 7.29 2.345 1.797 1.521 2.696 3.677 2.696 6.466 0 1.86-.388 3.508-1.164 4.944-.776 1.395-1.736 2.494-2.88 3.297-1.143.803-2.532 1.457-4.166 1.965-2.736.845-5.819 1.267-9.25 1.267.122 2.24.796 4.057 2.022 5.452 1.225 1.352 3.103 2.028 5.636 2.028 2.532 0 5.064-.93 7.596-2.789l2.328 5.135c-.817.76-2.205 1.542-4.166 2.345-1.919.803-4.125 1.205-6.616 1.205-4.983 0-8.638-1.416-10.966-4.248-2.328-2.873-3.492-6.803-3.492-11.79 0-4.987 1.327-9.17 3.982-12.551 2.655-3.38 6.371-5.071 11.15-5.071zm-2.818 14.516c1.511-.296 2.9-.909 4.166-1.838 1.266-.972 1.899-2.113 1.899-3.423 0-2.578-1.226-3.867-3.676-3.867-2.287 0-4.043.95-5.269 2.852-1.225 1.86-1.899 4.1-2.021 6.72 1.797-.043 3.43-.19 4.901-.444zM277.171 38.643V21.084c0-.676-.123-1.141-.368-1.395-.204-.295-.592-.464-1.164-.507l-2.573-.19v-5.134h10.354v4.754c.735-1.648 1.878-3 3.43-4.057 1.552-1.099 3.329-1.648 5.33-1.648 2.042 0 3.982.465 5.82 1.394v9.445l-5.697.444v-2.916c0-.845-.205-1.373-.613-1.585-.449-.21-1.001-.317-1.654-.317-1.634 0-2.982.613-4.043 1.839-1.021 1.183-1.532 2.704-1.532 4.564V40.48l5.33.254v5.008h-16.418v-4.818l2.021-.19c.613-.085 1.062-.254 1.348-.507.286-.296.429-.824.429-1.585z" fill="#000"/><path d="M12.13 40.038c4.9 0 7.351-2.029 7.351-6.086 0-2.113-1.082-3.676-3.247-4.69-1.143-.592-2.634-1.142-4.472-1.649-1.797-.507-3.308-1.014-4.533-1.521-1.184-.55-2.39-1.29-3.615-2.219C1.204 22.013 0 19.161 0 15.316c0-3.888 1.286-6.931 3.86-9.128 2.613-2.24 6.003-3.36 10.169-3.36 4.207 0 8.107.866 11.701 2.599v9.508l-6.249.444v-3.677c0-.633-.081-1.098-.245-1.394-.449-.803-1.899-1.205-4.35-1.205-2.409 0-4.206.444-5.39 1.332-1.144.887-1.716 2.26-1.716 4.12 0 1.352.49 2.535 1.47 3.55.654.676 1.614 1.246 2.88 1.711 1.307.423 2.675.867 4.104 1.332 1.47.464 2.757.971 3.86 1.52 1.143.55 2.328 1.31 3.553 2.283 2.492 1.901 3.737 4.839 3.737 8.811 0 3.972-1.388 7.1-4.166 9.382-2.736 2.282-6.37 3.423-10.904 3.423-4.493 0-8.536-.867-12.13-2.6V33.953l6.249-.444v3.867c0 .634.081 1.099.245 1.395.163.296.653.591 1.47.887.858.254 2.185.38 3.982.38zM36.371 7.138h3.982v6.72h8.148l-.613 5.324h-7.535v16.672c0 1.86.327 3.17.98 3.93.654.718 1.654 1.078 3.002 1.078 1.389 0 2.777-.444 4.166-1.332l1.838 4.881c-2.042 1.48-4.636 2.22-7.78 2.22-1.838 0-3.39-.255-4.656-.762-1.267-.465-2.206-.993-2.819-1.584-.612-.592-1.082-1.458-1.409-2.6-.326-1.14-.51-2.028-.55-2.662a52.07 52.07 0 01-.062-2.916V19.182h-4.35l.613-4.627c1.92-.17 3.37-.866 4.35-2.092.98-1.268 1.878-3.043 2.695-5.325zM66.815 12.907c3.064 0 5.494.782 7.29 2.345 1.798 1.522 2.696 3.677 2.696 6.466 0 1.86-.388 3.508-1.164 4.944-.776 1.395-1.736 2.494-2.88 3.297-1.143.803-2.531 1.458-4.165 1.965-2.736.845-5.82 1.267-9.25 1.267.122 2.24.796 4.057 2.021 5.452 1.225 1.352 3.104 2.029 5.636 2.029s5.065-.93 7.597-2.79l2.328 5.135c-.817.76-2.206 1.542-4.166 2.345-1.92.803-4.125 1.205-6.617 1.205-4.982 0-8.637-1.416-10.965-4.247-2.328-2.874-3.492-6.804-3.492-11.79 0-4.988 1.327-9.171 3.982-12.552 2.654-3.38 6.371-5.071 11.15-5.071zm-2.818 14.516c1.511-.296 2.9-.909 4.166-1.838 1.266-.972 1.9-2.113 1.9-3.423 0-2.578-1.226-3.867-3.676-3.867-2.287 0-4.044.95-5.269 2.852-1.225 1.86-1.9 4.1-2.022 6.72 1.797-.043 3.431-.19 4.901-.444zM79.52 18.992v-5.134h10.353v4.12c2.287-3.38 5.411-5.071 9.373-5.071 4.003 0 6.698 1.69 8.087 5.071 2.287-3.38 5.391-5.071 9.312-5.071 2.94 0 5.207.93 6.8 2.789 1.592 1.817 2.389 4.564 2.389 8.24v16.545l3.492.19v5.072h-14.581v-4.818l2.022-.19c.613-.085 1.041-.254 1.287-.507.285-.296.449-.803.49-1.522V25.585c0-2.325-.266-4.036-.797-5.135-.49-1.14-1.674-1.711-3.553-1.711s-3.329.591-4.35 1.775c-.98 1.183-1.47 2.768-1.47 4.754V40.48l3.37.19v5.072H97.286v-4.818l2.021-.19c.613-.085 1.062-.254 1.348-.507.286-.296.429-.824.429-1.585V25.585c0-2.325-.266-4.036-.796-5.135-.49-1.14-1.695-1.711-3.615-1.711-1.879 0-3.308.612-4.288 1.838-.98 1.225-1.47 2.747-1.47 4.564v15.34l3.308.19v5.072H79.765v-4.818l2.021-.19c.613-.085 1.062-.254 1.348-.507.286-.296.429-.824.429-1.585h.061V21.148c0-.719-.122-1.205-.367-1.459-.205-.295-.593-.464-1.164-.507l-2.573-.19z" fill="#233FFF"/></svg>